<mxfile host="app.diagrams.net" agent="Mozilla/5.0 (Windows NT 10.0; Win64; x64) AppleWebKit/537.36 (KHTML, like Gecko) Chrome/128.0.0.0 Safari/537.36 Edg/128.0.0.0" version="24.7.14">
  <diagram name="第 1 页" id="cMKsYf9ogDjdKhM5v4XI">
    <mxGraphModel dx="815" dy="1596" grid="1" gridSize="10" guides="1" tooltips="1" connect="1" arrows="1" fold="1" page="1" pageScale="1" pageWidth="827" pageHeight="1169" math="0" shadow="0">
      <root>
        <mxCell id="0" />
        <mxCell id="1" parent="0" />
        <mxCell id="RYgrCg3dzX4yA8JAuIH9-22" style="edgeStyle=orthogonalEdgeStyle;rounded=0;orthogonalLoop=1;jettySize=auto;html=1;entryX=0.532;entryY=-0.029;entryDx=0;entryDy=0;entryPerimeter=0;" edge="1" parent="1" source="RYgrCg3dzX4yA8JAuIH9-2" target="RYgrCg3dzX4yA8JAuIH9-23">
          <mxGeometry relative="1" as="geometry">
            <mxPoint x="480" y="-1055" as="targetPoint" />
          </mxGeometry>
        </mxCell>
        <mxCell id="RYgrCg3dzX4yA8JAuIH9-2" value="256b（64位十六进制）私钥" style="rounded=1;whiteSpace=wrap;html=1;" vertex="1" parent="1">
          <mxGeometry x="140" y="-1070" width="170" height="30" as="geometry" />
        </mxCell>
        <mxCell id="RYgrCg3dzX4yA8JAuIH9-3" value="" style="endArrow=classic;html=1;rounded=0;entryX=0.5;entryY=0;entryDx=0;entryDy=0;" edge="1" parent="1" source="RYgrCg3dzX4yA8JAuIH9-5">
          <mxGeometry width="50" height="50" relative="1" as="geometry">
            <mxPoint x="191.25" y="-1120" as="sourcePoint" />
            <mxPoint x="226.25" y="-1070" as="targetPoint" />
          </mxGeometry>
        </mxCell>
        <mxCell id="RYgrCg3dzX4yA8JAuIH9-5" value="&lt;font style=&quot;font-size: 10px;&quot;&gt;取随机数&lt;/font&gt;" style="text;strokeColor=none;align=center;fillColor=none;html=1;verticalAlign=middle;whiteSpace=wrap;rounded=0;" vertex="1" parent="1">
          <mxGeometry x="193.75" y="-1120" width="65" height="20" as="geometry" />
        </mxCell>
        <mxCell id="RYgrCg3dzX4yA8JAuIH9-7" value="" style="endArrow=classic;html=1;rounded=0;" edge="1" parent="1">
          <mxGeometry width="50" height="50" relative="1" as="geometry">
            <mxPoint x="224.83" y="-1040" as="sourcePoint" />
            <mxPoint x="225" y="-1000" as="targetPoint" />
          </mxGeometry>
        </mxCell>
        <mxCell id="RYgrCg3dzX4yA8JAuIH9-8" value="&lt;font style=&quot;font-size: 10px;&quot;&gt;椭圆曲线乘法&lt;/font&gt;" style="text;strokeColor=none;align=center;fillColor=none;html=1;verticalAlign=middle;whiteSpace=wrap;rounded=0;" vertex="1" parent="1">
          <mxGeometry x="230" y="-1030" width="65" height="20" as="geometry" />
        </mxCell>
        <mxCell id="RYgrCg3dzX4yA8JAuIH9-9" value="&lt;font style=&quot;font-size: 10px;&quot;&gt;单向&lt;/font&gt;" style="text;strokeColor=none;align=center;fillColor=none;html=1;verticalAlign=middle;whiteSpace=wrap;rounded=0;" vertex="1" parent="1">
          <mxGeometry x="165" y="-1030" width="65" height="20" as="geometry" />
        </mxCell>
        <mxCell id="RYgrCg3dzX4yA8JAuIH9-10" value="公钥" style="rounded=1;whiteSpace=wrap;html=1;" vertex="1" parent="1">
          <mxGeometry x="141.25" y="-1000" width="170" height="30" as="geometry" />
        </mxCell>
        <mxCell id="RYgrCg3dzX4yA8JAuIH9-11" value="" style="endArrow=classic;html=1;rounded=0;" edge="1" parent="1">
          <mxGeometry width="50" height="50" relative="1" as="geometry">
            <mxPoint x="224.83" y="-970" as="sourcePoint" />
            <mxPoint x="225" y="-930" as="targetPoint" />
          </mxGeometry>
        </mxCell>
        <mxCell id="RYgrCg3dzX4yA8JAuIH9-12" value="&lt;span style=&quot;font-size: 10px;&quot;&gt;SHA256&lt;/span&gt;" style="text;strokeColor=none;align=center;fillColor=none;html=1;verticalAlign=middle;whiteSpace=wrap;rounded=0;" vertex="1" parent="1">
          <mxGeometry x="230" y="-960" width="65" height="10" as="geometry" />
        </mxCell>
        <mxCell id="RYgrCg3dzX4yA8JAuIH9-13" value="" style="endArrow=classic;html=1;rounded=0;" edge="1" parent="1">
          <mxGeometry width="50" height="50" relative="1" as="geometry">
            <mxPoint x="224.83" y="-920" as="sourcePoint" />
            <mxPoint x="225" y="-880" as="targetPoint" />
          </mxGeometry>
        </mxCell>
        <mxCell id="RYgrCg3dzX4yA8JAuIH9-14" value="&lt;span style=&quot;font-size: 10px;&quot;&gt;RIPEMD160&lt;/span&gt;" style="text;strokeColor=none;align=center;fillColor=none;html=1;verticalAlign=middle;whiteSpace=wrap;rounded=0;" vertex="1" parent="1">
          <mxGeometry x="230" y="-910" width="65" height="10" as="geometry" />
        </mxCell>
        <mxCell id="RYgrCg3dzX4yA8JAuIH9-16" value="" style="shape=curlyBracket;whiteSpace=wrap;html=1;rounded=1;flipH=1;labelPosition=right;verticalLabelPosition=middle;align=left;verticalAlign=middle;" vertex="1" parent="1">
          <mxGeometry x="300" y="-965" width="20" height="80" as="geometry" />
        </mxCell>
        <mxCell id="RYgrCg3dzX4yA8JAuIH9-17" value="&lt;span style=&quot;font-size: 10px;&quot;&gt;双重哈希&lt;/span&gt;" style="text;strokeColor=none;align=center;fillColor=none;html=1;verticalAlign=middle;whiteSpace=wrap;rounded=0;" vertex="1" parent="1">
          <mxGeometry x="310" y="-930" width="65" height="10" as="geometry" />
        </mxCell>
        <mxCell id="RYgrCg3dzX4yA8JAuIH9-18" value="160b 公钥哈希" style="rounded=1;whiteSpace=wrap;html=1;" vertex="1" parent="1">
          <mxGeometry x="141.25" y="-880" width="170" height="30" as="geometry" />
        </mxCell>
        <mxCell id="RYgrCg3dzX4yA8JAuIH9-19" value="地址（即&lt;span style=&quot;font-size: 10px;&quot;&gt;Base58Check 编码的公钥哈希&amp;nbsp;&lt;/span&gt;）" style="rounded=1;whiteSpace=wrap;html=1;" vertex="1" parent="1">
          <mxGeometry x="140" y="-810" width="228.75" height="30" as="geometry" />
        </mxCell>
        <mxCell id="RYgrCg3dzX4yA8JAuIH9-20" value="" style="endArrow=classic;html=1;rounded=0;" edge="1" parent="1">
          <mxGeometry width="50" height="50" relative="1" as="geometry">
            <mxPoint x="227.42000000000002" y="-850" as="sourcePoint" />
            <mxPoint x="227.59" y="-810" as="targetPoint" />
          </mxGeometry>
        </mxCell>
        <mxCell id="RYgrCg3dzX4yA8JAuIH9-21" value="&lt;span style=&quot;font-size: 10px;&quot;&gt;Base58Check 编码&lt;/span&gt;&lt;div&gt;&lt;span style=&quot;font-size: 10px;&quot;&gt;前缀 0X00&lt;/span&gt;&lt;/div&gt;" style="text;strokeColor=none;align=center;fillColor=none;html=1;verticalAlign=middle;whiteSpace=wrap;rounded=0;" vertex="1" parent="1">
          <mxGeometry x="232.59" y="-840" width="97.41" height="10" as="geometry" />
        </mxCell>
        <mxCell id="RYgrCg3dzX4yA8JAuIH9-23" value="WIF 钱包导入格式" style="rounded=1;whiteSpace=wrap;html=1;" vertex="1" parent="1">
          <mxGeometry x="368.75" y="-1010" width="170" height="30" as="geometry" />
        </mxCell>
        <mxCell id="RYgrCg3dzX4yA8JAuIH9-25" value="&lt;span style=&quot;font-size: 10px;&quot;&gt;Base58Check 编码&lt;/span&gt;&lt;div&gt;&lt;span style=&quot;font-size: 10px;&quot;&gt;前缀 5&lt;/span&gt;&lt;/div&gt;" style="text;strokeColor=none;align=center;fillColor=none;html=1;verticalAlign=middle;whiteSpace=wrap;rounded=0;" vertex="1" parent="1">
          <mxGeometry x="365" y="-1080" width="97.41" height="10" as="geometry" />
        </mxCell>
        <mxCell id="RYgrCg3dzX4yA8JAuIH9-26" value="BIP0038加密私钥" style="rounded=1;whiteSpace=wrap;html=1;" vertex="1" parent="1">
          <mxGeometry x="368.75" y="-940" width="170" height="30" as="geometry" />
        </mxCell>
        <mxCell id="RYgrCg3dzX4yA8JAuIH9-27" value="" style="endArrow=classic;html=1;rounded=0;" edge="1" parent="1">
          <mxGeometry width="50" height="50" relative="1" as="geometry">
            <mxPoint x="462.41" y="-980" as="sourcePoint" />
            <mxPoint x="462.58000000000004" y="-940" as="targetPoint" />
          </mxGeometry>
        </mxCell>
        <mxCell id="RYgrCg3dzX4yA8JAuIH9-28" value="&lt;span style=&quot;font-size: 10px;&quot;&gt;加密算法&lt;/span&gt;" style="text;strokeColor=none;align=center;fillColor=none;html=1;verticalAlign=middle;whiteSpace=wrap;rounded=0;" vertex="1" parent="1">
          <mxGeometry x="467.58000000000004" y="-970" width="65" height="10" as="geometry" />
        </mxCell>
      </root>
    </mxGraphModel>
  </diagram>
</mxfile>
